<svg width="122" height="122" viewBox="0 0 122 122" fill="none" xmlns="http://www.w3.org/2000/svg">
<path d="M61 111.833C89.0745 111.833 111.833 89.0745 111.833 61C111.833 32.9255 89.0745 10.1667 61 10.1667C32.9255 10.1667 10.1667 32.9255 10.1667 61C10.1667 89.0745 32.9255 111.833 61 111.833Z" stroke="#BAD4AA" stroke-width="3.8125" stroke-linecap="round" stroke-linejoin="round"/>
<path d="M61 91.5C77.8447 91.5 91.5 77.8447 91.5 61C91.5 44.1553 77.8447 30.5 61 30.5C44.1553 30.5 30.5 44.1553 30.5 61C30.5 77.8447 44.1553 91.5 61 91.5Z" stroke="#D4D4AA" stroke-width="3.8125" stroke-linecap="round" stroke-linejoin="round"/>
<path d="M61 71.1666C66.6149 71.1666 71.1667 66.6149 71.1667 61C71.1667 55.3851 66.6149 50.8333 61 50.8333C55.3851 50.8333 50.8333 55.3851 50.8333 61C50.8333 66.6149 55.3851 71.1666 61 71.1666Z" stroke="#EDB458" stroke-width="3.8125" stroke-linecap="round" stroke-linejoin="round"/>
</svg>
