<?xml version="1.0" standalone="no"?>
<!DOCTYPE svg PUBLIC "-//W3C//DTD SVG 20010904//EN"
 "http://www.w3.org/TR/2001/REC-SVG-20010904/DTD/svg10.dtd">
<svg version="1.0" xmlns="http://www.w3.org/2000/svg"
 width="50.000000pt" height="50.000000pt" viewBox="0 0 50.000000 50.000000"
 preserveAspectRatio="xMidYMid meet">

<g transform="translate(0.000000,50.000000) scale(0.100000,-0.100000)"
fill="#000000" stroke="none">
<path d="M132 257 c-61 -107 -112 -197 -112 -200 0 -4 104 -7 230 -7 127 0
230 3 230 6 0 10 -224 394 -230 394 -3 0 -56 -87 -118 -193z m141 114 c-2 -6
7 -21 20 -33 l22 -23 -32 -3 c-18 -2 -48 -2 -65 0 l-33 3 23 23 c12 12 21 25
21 30 -3 15 2 19 24 17 12 -2 21 -8 20 -14z m81 -131 l27 -50 -131 0 -131 0
27 50 27 50 77 0 77 0 27 -50z m70 -120 l27 -50 -201 0 -201 0 27 50 27 50
147 0 147 0 27 -50z"/>
<path d="M240 330 c0 -5 5 -10 10 -10 6 0 10 5 10 10 0 6 -4 10 -10 10 -5 0
-10 -4 -10 -10z"/>
</g>
</svg>
